<svg width="44" height="44" viewBox="0 0 44 44" fill="none" xmlns="http://www.w3.org/2000/svg">
<circle cx="22" cy="22" r="22" fill="#DBDEE3"/>
<path d="M15 21C14.4477 21 14 21.4477 14 22C14 22.5523 14.4477 23 15 23L15 21ZM29.7071 22.7071C30.0976 22.3166 30.0976 21.6834 29.7071 21.2929L23.3431 14.9289C22.9526 14.5384 22.3195 14.5384 21.9289 14.9289C21.5384 15.3195 21.5384 15.9526 21.9289 16.3431L27.5858 22L21.9289 27.6569C21.5384 28.0474 21.5384 28.6805 21.9289 29.0711C22.3195 29.4616 22.9526 29.4616 23.3431 29.0711L29.7071 22.7071ZM15 23L29 23L29 21L15 21L15 23Z" fill="#2D323B"/>
</svg>
